<?xml version="1.0" encoding="UTF-8"?>
<svg version="1.1" xmlns="http://www.w3.org/2000/svg" width="512" height="512" >
<path d="M0 0 C3.26701612 2.66358727 6.39330111 5.45632415 9.50390625 8.30078125 C10.303125 9.0175 11.10234375 9.73421875 11.92578125 10.47265625 C23.25289034 21.15709249 31.22417267 34.17323423 37.50390625 48.30078125 C38.22707031 49.89986328 38.22707031 49.89986328 38.96484375 51.53125 C45.75045502 67.75502966 47.0915821 84.10593895 46.75390625 101.48828125 C46.73376514 103.32875611 46.71552812 105.16925282 46.69921875 107.00976562 C46.65592962 111.44066237 46.58734572 115.87046632 46.50390625 120.30078125 C47.57350586 120.27983398 48.64310547 120.25888672 49.74511719 120.23730469 C53.71828798 120.16483499 57.6914005 120.11895662 61.66503906 120.08105469 C63.38388904 120.06095497 65.10267077 120.03367036 66.82128906 119.99902344 C69.29379114 119.95043091 71.76538835 119.9277969 74.23828125 119.91015625 C75.38849762 119.87918854 75.38849762 119.87918854 76.56195068 119.84759521 C79.9545452 119.8461725 82.12155504 120.05267247 84.99609375 121.91796875 C86.98419843 125.0597922 86.96188828 127.11176957 86.89453125 130.81640625 C86.87519531 132.69199219 86.87519531 132.69199219 86.85546875 134.60546875 C86.80519531 136.55839844 86.80519531 136.55839844 86.75390625 138.55078125 C86.73585938 139.86820313 86.7178125 141.185625 86.69921875 142.54296875 C86.65206896 145.79630433 86.58626669 149.0481775 86.50390625 152.30078125 C87.49575928 152.32591797 88.4876123 152.35105469 89.50952148 152.37695312 C129.63462353 153.6328421 167.45747556 173.21490411 195.50390625 201.30078125 C198.67633651 204.8449409 201.61044381 208.5271581 204.50390625 212.30078125 C205.61185547 213.68523437 205.61185547 213.68523437 206.7421875 215.09765625 C233.40113685 249.16954315 243.0867135 292.87261622 237.92236328 335.35644531 C232.05639524 376.6304095 209.62142745 414.88345634 176.640625 440.328125 C158.99396391 453.49860114 139.7002045 462.47456428 118.50390625 468.30078125 C117.20525635 468.65873779 117.20525635 468.65873779 115.88037109 469.02392578 C77.2348509 479.07640179 33.03555921 471.84678471 -1.37353516 452.23046875 C-5.53670554 449.75945435 -9.53482451 447.08146935 -13.49609375 444.30078125 C-14.52734375 443.58792969 -15.55859375 442.87507813 -16.62109375 442.140625 C-30.73015025 431.85865007 -43.29184384 419.07328367 -53.234375 404.73046875 C-53.59172729 404.21557388 -53.94907959 403.70067902 -54.31726074 403.17018127 C-55.49609375 401.30078125 -55.49609375 401.30078125 -56.41671753 399.24331665 C-57.56263494 396.87569971 -58.62473902 395.1600012 -60.49609375 393.30078125 C-64.23492157 392.17972042 -67.82889468 392.36659939 -71.703125 392.51953125 C-72.78365646 392.53085083 -73.86418793 392.54217041 -74.97746277 392.55383301 C-78.42298961 392.59855807 -81.86432873 392.69892114 -85.30859375 392.80078125 C-87.6464242 392.8409129 -89.98432 392.87741421 -92.32226562 392.91015625 C-98.04829972 392.99827979 -103.77189764 393.13207797 -109.49609375 393.30078125 C-109.21314453 394.04013916 -108.93019531 394.77949707 -108.63867188 395.54125977 C-106.08209985 402.61732545 -104.84105283 408.72890799 -104.99609375 416.23828125 C-105.00817871 417.1912207 -105.02026367 418.14416016 -105.03271484 419.12597656 C-105.46661992 434.6045541 -111.47430005 446.71425425 -122.01171875 457.9765625 C-133.24737565 468.48790818 -148.44075288 473.97919142 -163.78125 473.54296875 C-180.15428186 472.08235296 -194.51630347 465.70291403 -205.49609375 453.30078125 C-216.56769762 438.60710124 -219.31226785 423.31233863 -217.49609375 405.30078125 C-216.69830894 401.09436586 -215.32572768 397.17241732 -213.49609375 393.30078125 C-214.6046875 393.275 -215.71328125 393.24921875 -216.85546875 393.22265625 C-218.31904922 393.16636469 -219.78258937 393.10901758 -221.24609375 393.05078125 C-221.97570312 393.03660156 -222.7053125 393.02242188 -223.45703125 393.0078125 C-226.80774222 392.85550746 -229.01596909 392.6705303 -231.71087646 390.59515381 C-233.88101831 387.80607377 -233.98351049 386.47953918 -233.95019531 382.98144531 C-233.94974213 381.39024872 -233.94974213 381.39024872 -233.94927979 379.76690674 C-233.91831207 378.058909 -233.91831207 378.058909 -233.88671875 376.31640625 C-233.88105896 375.14567566 -233.87539917 373.97494507 -233.86956787 372.76873779 C-233.847175 369.02900325 -233.79697055 365.29022628 -233.74609375 361.55078125 C-233.72603264 359.01563883 -233.70778119 356.4804814 -233.69140625 353.9453125 C-233.64730053 347.73014196 -233.58035829 341.51553001 -233.49609375 335.30078125 C-234.43324219 335.16285156 -235.37039062 335.02492188 -236.3359375 334.8828125 C-243.37984419 333.58547987 -249.00835838 328.51463322 -252.99609375 322.73828125 C-256.65411609 316.94286795 -257.88738229 311.35694665 -257.87109375 304.55078125 C-257.86948242 303.84848389 -257.86787109 303.14618652 -257.86621094 302.42260742 C-257.6726514 294.16122077 -255.20255836 287.41485048 -249.49609375 281.30078125 C-250.54718972 278.32267599 -251.7084335 275.98890724 -253.49609375 273.36328125 C-257.01596883 267.97347254 -257.88630979 262.90880417 -257.87109375 256.55078125 C-257.86948242 255.84848389 -257.86787109 255.14618652 -257.86621094 254.42260742 C-257.6726514 246.16122077 -255.20255836 239.41485048 -249.49609375 233.30078125 C-250.54718972 230.32267599 -251.7084335 227.98890724 -253.49609375 225.36328125 C-258.54316942 217.63494662 -258.21188104 209.17300893 -257.49609375 200.30078125 C-256.62389055 196.92511912 -255.34950159 194.23940815 -253.49609375 191.30078125 C-253.14546875 190.67945313 -252.79484375 190.058125 -252.43359375 189.41796875 C-249.28316474 184.36415555 -244.82376501 180.90775339 -239.49609375 178.30078125 C-237.50124111 177.93791203 -235.50129532 177.60124385 -233.49609375 177.30078125 C-233.5049762 176.64567566 -233.51385864 175.99057007 -233.52301025 175.31561279 C-233.61144425 168.50265216 -233.67181185 161.68985432 -233.71582031 154.87646484 C-233.73594647 152.33310322 -233.76325012 149.78978792 -233.79785156 147.24658203 C-233.84632345 143.59265721 -233.86905291 139.93934369 -233.88671875 136.28515625 C-233.90736389 135.14649109 -233.92800903 134.00782593 -233.94927979 132.83465576 C-233.94958191 131.77385803 -233.94988403 130.7130603 -233.95019531 129.62011719 C-233.95907776 128.68746033 -233.96796021 127.75480347 -233.97711182 126.79388428 C-233.34182991 123.50123615 -232.12679681 122.32270853 -229.49609375 120.30078125 C-226.60644255 119.95168075 -224.11016665 119.83262505 -221.23046875 119.91015625 C-220.43707092 119.91581604 -219.6436731 119.92147583 -218.82623291 119.92730713 C-216.29889902 119.94964978 -213.7729971 119.99983949 -211.24609375 120.05078125 C-209.52996843 120.07084911 -207.81382083 120.08909938 -206.09765625 120.10546875 C-201.89658595 120.1495073 -197.6965824 120.21851799 -193.49609375 120.30078125 C-193.51704102 119.18856201 -193.53798828 118.07634277 -193.55957031 116.93041992 C-193.63333541 112.70529661 -193.67837602 108.48022663 -193.71582031 104.25463867 C-193.73563142 102.44431921 -193.76268815 100.63406095 -193.79785156 98.82397461 C-194.11082488 82.26860676 -192.3556435 66.42482226 -185.80859375 51.05078125 C-185.46610596 50.22634521 -185.12361816 49.40190918 -184.77075195 48.55249023 C-179.03439031 35.15294111 -171.29994578 24.02195276 -161.49609375 13.30078125 C-160.779375 12.5015625 -160.06265625 11.70234375 -159.32421875 10.87890625 C-148.63978251 -0.44820284 -135.62364077 -8.41948517 -121.49609375 -14.69921875 C-120.43003906 -15.18132813 -119.36398438 -15.6634375 -118.265625 -16.16015625 C-80.20172443 -32.08041885 -32.37806739 -25.51961434 0 0 Z M-126.49609375 7.30078125 C-127.49382812 7.85636719 -128.4915625 8.41195312 -129.51953125 8.984375 C-153.62324843 23.38444673 -168.30564797 48.20226017 -175.15234375 74.85546875 C-178.4584782 89.68445416 -177.58078165 105.2263347 -177.49609375 120.30078125 C-169.57609375 120.30078125 -161.65609375 120.30078125 -153.49609375 120.30078125 C-153.45742187 116.55541016 -153.45742187 116.55541016 -153.41796875 112.734375 C-153.37933496 110.26169518 -153.33424464 107.78920914 -153.28857422 105.31665039 C-153.26069797 103.62469044 -153.2393214 101.93260832 -153.22509766 100.24047852 C-153.09755321 85.90873377 -151.54528406 72.80265686 -144.68359375 59.92578125 C-144.34102539 59.26151123 -143.99845703 58.59724121 -143.64550781 57.9128418 C-140.81230007 52.56826304 -137.4558881 47.87340091 -133.49609375 43.30078125 C-132.58537109 42.09615234 -132.58537109 42.09615234 -131.65625 40.8671875 C-123.77445891 31.50310659 -112.74254848 25.62861319 -101.49609375 21.30078125 C-99.82740234 20.64916016 -99.82740234 20.64916016 -98.125 19.984375 C-78.11652192 13.46628963 -55.7688719 16.05597403 -37.12109375 25.11328125 C-31.03306857 28.221627 -25.67179727 31.81872871 -20.49609375 36.30078125 C-19.69300781 36.90792969 -18.88992187 37.51507813 -18.0625 38.140625 C-4.6982945 49.38933983 3.91964598 68.43577631 5.74920654 85.60241699 C6.14883955 91.30932299 6.2058361 97.01961007 6.25390625 102.73828125 C6.28214927 104.4525029 6.31208786 106.16669747 6.34375 107.88085938 C6.41971746 112.021086 6.46114709 116.15955636 6.50390625 120.30078125 C14.42390625 120.30078125 22.34390625 120.30078125 30.50390625 120.30078125 C30.90193545 86.07026993 28.38646956 54.8762029 4.50390625 28.30078125 C3.91996094 27.58664063 3.33601562 26.8725 2.734375 26.13671875 C-13.15894845 6.85629358 -38.49622374 -4.13229634 -62.8515625 -7.109375 C-85.73038122 -9.24276967 -106.6069645 -3.83250831 -126.49609375 7.30078125 Z M-115.49609375 48.30078125 C-116.2128125 48.90535156 -116.92953125 49.50992188 -117.66796875 50.1328125 C-131.21382676 62.60235233 -135.98558284 78.55227801 -137.49609375 96.30078125 C-137.49609375 104.22078125 -137.49609375 112.14078125 -137.49609375 120.30078125 C-95.25609375 120.30078125 -53.01609375 120.30078125 -9.49609375 120.30078125 C-9.12758556 83.50113239 -9.12758556 83.50113239 -26.49609375 53.30078125 C-27.04910156 52.635625 -27.60210937 51.97046875 -28.171875 51.28515625 C-39.55451555 38.74448031 -55.93146909 33.3486782 -72.36035156 32.36425781 C-88.52732585 31.88375789 -103.29064699 37.96552391 -115.49609375 48.30078125 Z M-217.49609375 136.30078125 C-217.49609375 149.50078125 -217.49609375 162.70078125 -217.49609375 176.30078125 C-214.64033691 176.31012695 -211.78458008 176.31947266 -208.84228516 176.32910156 C-199.38261954 176.36294352 -189.92317042 176.41853269 -180.46367836 176.48468399 C-174.73114541 176.5241098 -168.99876495 176.55632242 -163.26611328 176.57177734 C-157.72865295 176.58697598 -152.19161199 176.62147892 -146.65433884 176.66909027 C-144.54699738 176.68387094 -142.43959604 176.69182035 -140.33220291 176.6926651 C-137.36896866 176.69504647 -134.40688244 176.72222041 -131.44384766 176.75488281 C-130.58212952 176.74985245 -129.72041138 176.74482208 -128.83258057 176.73963928 C-119.85621778 176.89166073 -111.80674635 179.84336928 -105.49609375 186.30078125 C-100.44947321 193.09052421 -98.10067939 199.52063887 -98.12109375 208.05078125 C-98.12270508 208.75307861 -98.12431641 209.45537598 -98.12597656 210.17895508 C-98.3195361 218.44034173 -100.78962914 225.18671202 -106.49609375 231.30078125 C-105.44499778 234.27888651 -104.283754 236.61265526 -102.49609375 239.23828125 C-98.9626583 244.64885429 -98.10591043 249.73173281 -98.12109375 256.11328125 C-98.12270508 256.81888184 -98.12431641 257.52448242 -98.12597656 258.25146484 C-98.30124529 265.72444222 -100.52693099 270.66990786 -104.87109375 276.55078125 C-106.81666892 279.14457081 -106.81666892 279.14457081 -105.99609375 281.80078125 C-104.88708775 283.64912458 -103.70920107 285.45652987 -102.49609375 287.23828125 C-97.54001401 294.82727834 -97.58520738 303.53934613 -98.49609375 312.30078125 C-100.41965115 320.43171038 -104.43647262 326.45267308 -111.43359375 331.05078125 C-117.34053768 334.49557846 -122.80473042 335.50549626 -129.49609375 336.30078125 C-129.66981425 341.0328513 -129.79646537 345.76304693 -129.88061523 350.49755859 C-129.91570705 352.10596055 -129.96339622 353.71414093 -130.02416992 355.32177734 C-130.10960964 357.64085553 -130.14888723 359.95697303 -130.1796875 362.27734375 C-130.233881 363.34645493 -130.233881 363.34645493 -130.28916931 364.43716431 C-130.29229522 368.45899283 -129.47138081 370.93062694 -126.734375 373.765625 C-121.64172935 377.56497118 -116.10622602 377.05186002 -110 376.88671875 C-108.21697731 376.87398422 -108.21697731 376.87398422 -106.39793396 376.86099243 C-102.61721547 376.82752003 -98.83866298 376.75224344 -95.05859375 376.67578125 C-92.48896318 376.64567408 -89.91929905 376.61829961 -87.34960938 376.59375 C-81.06437047 376.52774843 -74.78038688 376.42745812 -68.49609375 376.30078125 C-68.72534546 375.62742737 -68.95459717 374.95407349 -69.1907959 374.26031494 C-70.24499217 371.155524 -71.29244812 368.04849765 -72.33984375 364.94140625 C-72.70045898 363.88260254 -73.06107422 362.82379883 -73.43261719 361.73291016 C-87.02494006 321.29730124 -82.40712149 277.22616674 -64.04638672 239.06201172 C-58.27656084 227.55880098 -50.85823547 217.0645772 -42.49609375 207.30078125 C-41.72652344 206.39714844 -40.95695313 205.49351562 -40.1640625 204.5625 C-34.45004086 198.05661395 -28.34657079 192.57839634 -21.49609375 187.30078125 C-20.59503906 186.57246094 -19.69398438 185.84414062 -18.765625 185.09375 C7.29281221 164.57048428 38.09820639 156.08966061 70.50390625 152.30078125 C70.50390625 147.02078125 70.50390625 141.74078125 70.50390625 136.30078125 C-24.53609375 136.30078125 -119.57609375 136.30078125 -217.49609375 136.30078125 Z M-12.49609375 201.30078125 C-13.33527344 202.03167969 -14.17445313 202.76257813 -15.0390625 203.515625 C-17.55738735 205.74439964 -20.03441027 208.0097095 -22.49609375 210.30078125 C-23.17414063 210.9246875 -23.8521875 211.54859375 -24.55078125 212.19140625 C-47.29183714 233.92783718 -63.12214716 267.36892091 -64.6730957 298.89916992 C-65.14840022 324.36429207 -65.14840022 324.36429207 -60.49609375 349.30078125 C-60.28178711 350.06197266 -60.06748047 350.82316406 -59.84667969 351.60742188 C-49.24314723 388.49598459 -24.25590806 419.23772698 8.92944336 438.32055664 C23.57347941 446.40256333 39.10557062 451.30541963 55.50390625 454.30078125 C56.99083984 454.57535156 56.99083984 454.57535156 58.5078125 454.85546875 C95.2724574 460.31983579 133.54405004 450.01586356 163.46801758 428.2409668 C188.92333411 409.04388997 207.93020162 382.34335388 216.81640625 351.67578125 C217.18016357 350.42462524 217.18016357 350.42462524 217.55126953 349.14819336 C220.88831387 337.01809614 221.88412756 325.10223098 221.81640625 312.55078125 C221.81458344 311.84734589 221.81276062 311.14391052 221.81088257 310.41915894 C221.76442304 299.7581348 221.20867628 289.66363509 218.50390625 279.30078125 C218.3322998 278.6159668 218.16069336 277.93115234 217.98388672 277.22558594 C211.91331545 253.32305062 200.37770669 232.28862387 183.50390625 214.30078125 C183.04516113 213.80497559 182.58641602 213.30916992 182.11376953 212.79833984 C155.7855091 184.55495208 119.64369743 170.28787411 81.50390625 168.30078125 C48.06211262 167.3428132 12.67271409 179.08789557 -12.49609375 201.30078125 Z M-237.49609375 198.36328125 C-240.92325195 203.39691985 -241.15378035 207.27970677 -240.49609375 213.30078125 C-238.14816717 218.17724415 -235.20848521 220.70415739 -230.49609375 223.30078125 C-216.17221819 226.97926158 -194.40263415 228.15817009 -181.21875 220.95703125 C-177.25486213 218.40991521 -173.64005982 215.57605607 -170.0078125 212.58203125 C-166.57259382 209.86810796 -164.1173886 208.09607261 -159.64672852 208.56396484 C-153.50753966 210.66727645 -148.3173992 215.23633467 -143.16015625 219.05664062 C-136.67619949 223.64900996 -136.67619949 223.64900996 -128.98046875 224.37109375 C-123.34974951 223.36321121 -119.93416028 220.8902232 -116.12109375 216.67578125 C-113.91701482 212.09807886 -113.69892985 208.29525714 -114.49609375 203.30078125 C-116.84402033 198.42431835 -119.78370229 195.89740511 -124.49609375 193.30078125 C-129.17673544 191.98254758 -133.91063947 192.145877 -138.73339844 192.13964844 C-139.65601471 192.13468353 -140.57863098 192.12971863 -141.52920532 192.12460327 C-144.57546745 192.11002241 -147.62167749 192.1031862 -150.66796875 192.09765625 C-152.79160564 192.09190116 -154.91524252 192.08614348 -157.03887939 192.0803833 C-161.4907658 192.06988471 -165.94263421 192.06403466 -170.39453125 192.06054688 C-176.08493748 192.05506655 -181.77510391 192.03104339 -187.46543503 192.00257492 C-191.85276981 191.98390414 -196.24004737 191.97874056 -200.62741852 191.977211 C-202.72447266 191.97419365 -204.82152601 191.96619631 -206.91854095 191.95302582 C-209.85961383 191.93587355 -212.80010764 191.93786805 -215.74121094 191.94433594 C-216.59866913 191.93512115 -217.45612732 191.92590637 -218.33956909 191.91641235 C-225.34475234 191.96440435 -232.72420012 192.75417088 -237.49609375 198.36328125 Z M-170.74609375 231.86328125 C-171.39578125 232.28158203 -172.04546875 232.69988281 -172.71484375 233.13085938 C-176.06967974 235.47431099 -177.32081361 236.60766436 -178.3515625 240.68359375 C-177.14121588 245.80131507 -174.37670604 248.1587987 -170.55859375 251.61328125 C-169.25615735 252.83678211 -167.95529659 254.06196311 -166.65625 255.2890625 C-166.07496338 255.82055908 -165.49367676 256.35205566 -164.89477539 256.8996582 C-162.57730703 259.22117172 -162.45831128 260.57470416 -161.99609375 263.92578125 C-162.02261714 268.77956121 -164.41404283 271.17195294 -167.671875 274.5390625 C-168.27386719 275.12042969 -168.87585938 275.70179688 -169.49609375 276.30078125 C-170.06714844 276.87183594 -170.63820313 277.44289063 -171.2265625 278.03125 C-171.64550781 278.45019531 -172.06445312 278.86914062 -172.49609375 279.30078125 C-171.09976268 282.48638077 -169.45051882 284.5402197 -166.93359375 286.92578125 C-163.68968076 290.0145799 -162.62810791 291.34367857 -161.99609375 295.92578125 C-162.06443464 300.6583876 -164.15283738 302.90700037 -167.34028625 306.21434021 C-169.49609375 308.30078125 -169.49609375 308.30078125 -171.61515808 309.94056702 C-175.06407278 312.77509954 -177.20291616 314.93687166 -178.15884399 319.38400269 C-178.3347114 323.13006745 -178.26378813 326.79988009 -178.109375 330.546875 C-178.08891533 331.92628985 -178.07364316 333.30579036 -178.0632782 334.68531799 C-178.00898167 340.50714709 -177.85056509 346.32539906 -177.6784668 352.14477539 C-177.57640886 355.72047687 -177.52888905 359.29386803 -177.51177025 362.87092781 C-177.48499701 364.87530846 -177.39452254 366.87851701 -177.30256653 368.88096619 C-177.25428049 377.87181119 -177.25428049 377.87181119 -180.87533569 382.03860474 C-183.81323242 384.42602539 -183.81323242 384.42602539 -186.7408905 386.41029358 C-194.19522167 391.52509634 -198.66622339 399.56287957 -200.49609375 408.30078125 C-201.64965903 420.08617499 -200.4028744 430.23427663 -193.30859375 440.05078125 C-185.87015219 448.87899533 -177.25931789 454.54090966 -165.625 455.6796875 C-154.03597125 456.19905279 -144.55080109 453.84676454 -135.5625 446.2734375 C-127.32805863 438.41258137 -122.54207831 429.91062865 -122.02539062 418.38134766 C-121.85702545 406.42461418 -125.10979984 396.94305696 -133.49609375 388.30078125 C-135.38247815 386.99305362 -137.27383042 385.69247173 -139.16931152 384.39796448 C-142.38034911 381.78401868 -144.20402 380.20885726 -145.47993469 376.24195671 C-145.81054582 372.5740423 -145.79832214 369.05132456 -145.66210938 365.37084961 C-145.65084085 363.98353637 -145.64460814 362.59617458 -145.64299011 361.20881653 C-145.62949509 358.23647595 -145.58213444 355.26735433 -145.50810242 352.29591179 C-145.3924619 347.59234617 -145.36176765 342.8904965 -145.34338379 338.1856842 C-145.29258853 328.20214957 -145.1491838 318.22069256 -144.99609375 308.23828125 C-144.83077219 297.45558397 -144.68161585 286.67412867 -144.63946104 275.89013582 C-144.61803004 271.21790377 -144.54336442 266.5505463 -144.42708588 261.8797549 C-144.36565187 258.96969212 -144.35013492 256.06066087 -144.346735 253.15000725 C-144.33062493 251.1685717 -144.25937202 249.18782178 -144.186203 247.20767212 C-144.21424681 240.31047781 -144.21424681 240.31047781 -147.91828918 234.74264717 C-150.69684004 232.69904158 -153.47565225 230.95988002 -156.49609375 229.30078125 C-157.48609375 228.64078125 -158.47609375 227.98078125 -159.49609375 227.30078125 C-164.41152854 227.30078125 -166.88075499 229.1489021 -170.74609375 231.86328125 Z M-236.09936523 244.75341797 C-240.19226065 249.47087163 -240.85198996 252.70445139 -240.7734375 258.76171875 C-240.36232931 262.52538527 -239.01323015 264.51868312 -236.49609375 267.30078125 C-228.6099555 273.50901774 -219.6944394 272.64385099 -210.12255859 272.76074219 C-208.45820389 272.78738226 -206.79401536 272.82834512 -205.13037109 272.88378906 C-195.61370042 273.50521954 -195.61370042 273.50521954 -186.80371094 270.70703125 C-185.0823102 268.98822951 -183.7303787 267.39050454 -182.49609375 265.30078125 C-183.99198819 262.14890758 -185.51763532 260.0841218 -188.05859375 257.67578125 C-192.06757726 253.8584955 -192.64480853 251.73232557 -193.05859375 246.17578125 C-193.14238281 245.08007812 -193.22617188 243.984375 -193.3125 242.85546875 C-193.37308594 242.01242187 -193.43367188 241.169375 -193.49609375 240.30078125 C-197.88855685 240.2259555 -202.28067047 240.17186442 -206.67358398 240.13598633 C-208.16420973 240.12101083 -209.65479226 240.10062306 -211.14526367 240.07446289 C-224.47016646 239.36293927 -224.47016646 239.36293927 -236.09936523 244.75341797 Z M-129.49609375 241.30078125 C-129.49609375 251.20078125 -129.49609375 261.10078125 -129.49609375 271.30078125 C-122.03740526 270.23525432 -121.30340902 270.10809652 -116.49609375 265.30078125 C-113.75965008 260.84588832 -113.85299056 256.38129646 -114.49609375 251.30078125 C-116.83138576 246.45055939 -119.75552515 243.816185 -124.49609375 241.30078125 C-126.14609375 241.30078125 -127.79609375 241.30078125 -129.49609375 241.30078125 Z M-237.49609375 294.36328125 C-240.92325195 299.39691985 -241.15378035 303.27970677 -240.49609375 309.30078125 C-238.14816717 314.17724415 -235.20848521 316.70415739 -230.49609375 319.30078125 C-226.32265095 320.42582814 -222.31486887 320.41559709 -218.0078125 320.3984375 C-216.95301445 320.39631508 -216.95301445 320.39631508 -215.87690735 320.39414978 C-213.64575831 320.38858234 -211.41471211 320.376036 -209.18359375 320.36328125 C-207.664715 320.35826204 -206.14583466 320.35369987 -204.62695312 320.34960938 C-200.91663363 320.33862361 -197.20637374 320.32138159 -193.49609375 320.30078125 C-193.46306152 319.48746338 -193.4300293 318.67414551 -193.39599609 317.83618164 C-193.3336377 316.76360107 -193.2712793 315.69102051 -193.20703125 314.5859375 C-193.15337402 313.52511963 -193.0997168 312.46430176 -193.04443359 311.37133789 C-192.15089227 306.36774515 -189.15010953 303.61173441 -185.49609375 300.30078125 C-184.49269435 299.30419225 -183.49150316 298.30535087 -182.49609375 297.30078125 C-184.07717339 293.41994941 -186.26162707 290.95021066 -189.49609375 288.30078125 C-192.38485662 287.82423749 -194.66673506 287.64273404 -197.54296875 287.70703125 C-198.69892548 287.70697083 -198.69892548 287.70697083 -199.87823486 287.70690918 C-201.50549489 287.71225619 -203.13275497 287.72980431 -204.75976562 287.75878906 C-207.22478084 287.80042129 -209.68703815 287.79987161 -212.15234375 287.79296875 C-226.08368391 287.46693128 -226.08368391 287.46693128 -237.49609375 294.36328125 Z M-129.49609375 289.30078125 C-129.49609375 299.20078125 -129.49609375 309.10078125 -129.49609375 319.30078125 C-122.03740526 318.23525432 -121.30340902 318.10809652 -116.49609375 313.30078125 C-113.75965008 308.84588832 -113.85299056 304.38129646 -114.49609375 299.30078125 C-116.83138576 294.45055939 -119.75552515 291.816185 -124.49609375 289.30078125 C-126.14609375 289.30078125 -127.79609375 289.30078125 -129.49609375 289.30078125 Z M-217.49609375 336.30078125 C-217.49609375 349.50078125 -217.49609375 362.70078125 -217.49609375 376.30078125 C-202.28604069 377.40248704 -202.28604069 377.40248704 -195.9609375 374.38671875 C-191.18764407 369.00430435 -192.80429833 359.65261484 -193.05859375 352.92578125 C-193.09373374 351.31517158 -193.12566807 349.70448857 -193.15429688 348.09375 C-193.22520293 344.1594767 -193.36210337 340.23541943 -193.49609375 336.30078125 C-201.41609375 336.30078125 -209.33609375 336.30078125 -217.49609375 336.30078125 Z " fill="white" transform="translate(265.49609375,31.69921875)"/>
<path d="M0 0 C1.27866943 -0.0112793 2.55733887 -0.02255859 3.87475586 -0.03417969 C5.28955305 -0.02640266 6.704348 -0.01821 8.11914062 -0.00964355 C9.61076542 -0.01506435 11.10238485 -0.02218677 12.59399414 -0.03088379 C16.6436169 -0.04912547 20.69283223 -0.04204633 24.74246216 -0.02936745 C28.97936099 -0.01924407 33.21622481 -0.02863128 37.453125 -0.03491211 C44.56842312 -0.04219046 51.68355521 -0.03259594 58.79882812 -0.0135498 C67.02641862 0.00821938 75.25361265 0.00116814 83.48119354 -0.02085543 C90.54373317 -0.03900413 97.6061534 -0.04157037 104.6687088 -0.03110075 C108.88752237 -0.02486287 113.10614956 -0.02403817 117.32495117 -0.0372467 C121.29119435 -0.04879699 125.25692611 -0.04079505 129.22311401 -0.01766968 C130.6791804 -0.01237811 132.1352898 -0.01390409 133.59133911 -0.02272034 C135.57780425 -0.03363977 137.56436338 -0.01752243 139.55078125 0 C141.21880798 0.00226215 141.21880798 0.00226215 142.92053223 0.00457001 C146.49304499 0.63447036 147.66898171 1.58259002 149.77539062 4.50793457 C150.27875519 6.86303711 150.27875519 6.86303711 150.2833252 9.5177002 C150.29460449 10.5271167 150.30588379 11.5365332 150.31750488 12.57653809 C150.30940796 13.67796143 150.30131104 14.77938477 150.29296875 15.91418457 C150.29997803 17.07877197 150.3069873 18.24335938 150.31420898 19.4432373 C150.33183495 23.2983779 150.32014903 27.15278631 150.30664062 31.00793457 C150.3093342 33.6830741 150.31320916 36.35819126 150.3182373 39.0333252 C150.32551259 44.64213007 150.31592934 50.2507242 150.296875 55.85949707 C150.2751062 62.34211364 150.28215767 68.82422699 150.30418062 75.30683136 C150.32233822 80.87470046 150.32489128 86.44241816 150.31442595 92.01030731 C150.30819285 95.33489127 150.30892261 98.65918709 150.3205719 101.98376465 C150.3307081 105.69008614 150.31527547 109.39543564 150.29296875 113.10168457 C150.30106567 114.20310791 150.3091626 115.30453125 150.31750488 116.43933105 C150.30622559 117.44874756 150.29494629 118.45816406 150.2833252 119.49816895 C150.28181709 120.37420776 150.28030899 121.25024658 150.27875519 122.15283203 C149.60361892 125.31160653 148.27242663 126.52252076 145.77539062 128.50793457 C142.75097656 128.96203613 142.75097656 128.96203613 139.25976562 128.89855957 C137.38417969 128.87922363 137.38417969 128.87922363 135.47070312 128.85949707 C133.51777344 128.80922363 133.51777344 128.80922363 131.52539062 128.75793457 C130.20796875 128.7398877 128.89054688 128.72184082 127.53320312 128.70324707 C124.27986755 128.65609728 121.02799438 128.59029501 117.77539062 128.50793457 C117.79633789 129.33519043 117.81728516 130.16244629 117.83886719 131.01477051 C117.92200682 134.76236827 117.97404593 138.50977206 118.02539062 142.25793457 C118.07566406 144.21086426 118.07566406 144.21086426 118.12695312 146.20324707 C118.13984375 147.4536377 118.15273438 148.70402832 118.16601562 149.99230957 C118.18696289 151.14440918 118.20791016 152.29650879 118.22949219 153.48352051 C117.6629202 157.2570118 116.75358833 158.18316432 113.77539062 160.50793457 C110.92053223 161.01129913 110.92053223 161.01129913 107.55078125 161.01586914 C106.27211182 161.02714844 104.99344238 161.03842773 103.67602539 161.05004883 C102.2612282 161.0422718 100.84643325 161.03407914 99.43164062 161.0255127 C97.94001583 161.03093349 96.4483964 161.03805591 94.95678711 161.04675293 C90.90716435 161.06499461 86.85794902 161.05791547 82.80831909 161.04523659 C78.57142026 161.03511321 74.33455644 161.04450042 70.09765625 161.05078125 C62.98235813 161.0580596 55.86722604 161.04846509 48.75195312 161.02941895 C40.52436263 161.00764976 32.2971686 161.014701 24.06958771 161.03672457 C17.00704808 161.05487327 9.94462785 161.05743951 2.88207245 161.04696989 C-1.33674112 161.04073201 -5.55536831 161.03990731 -9.77416992 161.05311584 C-13.7404131 161.06466613 -17.70614486 161.05666419 -21.67233276 161.03353882 C-23.12839915 161.02824725 -24.58450855 161.02977323 -26.04055786 161.03858948 C-28.027023 161.04950891 -30.01358213 161.03339157 -32 161.01586914 C-33.11201782 161.01436104 -34.22403564 161.01285294 -35.36975098 161.01129913 C-38.94226374 160.38139878 -40.11820046 159.43327912 -42.22460938 156.50793457 C-42.72797394 154.15283203 -42.72797394 154.15283203 -42.73254395 151.49816895 C-42.74382324 150.48875244 -42.75510254 149.47933594 -42.76672363 148.43933105 C-42.75862671 147.33790771 -42.75052979 146.23648438 -42.7421875 145.10168457 C-42.74919678 143.93709717 -42.75620605 142.77250977 -42.76342773 141.57263184 C-42.7810537 137.71749124 -42.76936778 133.86308283 -42.75585938 130.00793457 C-42.75855295 127.33279504 -42.76242791 124.65767788 -42.76745605 121.98254395 C-42.77473134 116.37373907 -42.76514809 110.76514494 -42.74609375 105.15637207 C-42.72432495 98.6737555 -42.73137642 92.19164215 -42.75339937 85.70903778 C-42.77155697 80.14116868 -42.77411003 74.57345098 -42.7636447 69.00556183 C-42.7574116 65.68097787 -42.75814136 62.35668205 -42.76979065 59.03210449 C-42.77992685 55.325783 -42.76449422 51.6204335 -42.7421875 47.91418457 C-42.75028442 46.81276123 -42.75838135 45.71133789 -42.76672363 44.57653809 C-42.75544434 43.56712158 -42.74416504 42.55770508 -42.73254395 41.5177002 C-42.73103584 40.64166138 -42.72952774 39.76562256 -42.72797394 38.86303711 C-42.05283767 35.70426261 -40.72164538 34.49334838 -38.22460938 32.50793457 C-35.20019531 32.05383301 -35.20019531 32.05383301 -31.70898438 32.11730957 C-30.45859375 32.1302002 -29.20820313 32.14309082 -27.91992188 32.15637207 C-25.96699219 32.20664551 -25.96699219 32.20664551 -23.97460938 32.25793457 C-22.6571875 32.27598145 -21.33976562 32.29402832 -19.98242188 32.31262207 C-16.7290863 32.35977186 -13.47721313 32.42557413 -10.22460938 32.50793457 C-10.24555664 31.68067871 -10.26650391 30.85342285 -10.28808594 30.00109863 C-10.37122557 26.25350087 -10.42326468 22.50609708 -10.47460938 18.75793457 C-10.52488281 16.80500488 -10.52488281 16.80500488 -10.57617188 14.81262207 C-10.5890625 13.56223145 -10.60195313 12.31184082 -10.61523438 11.02355957 C-10.63618164 9.87145996 -10.65712891 8.71936035 -10.67871094 7.53234863 C-9.72999015 1.21366417 -5.87275328 0.00796454 0 0 Z M5.77539062 16.50793457 C5.77539062 21.78793457 5.77539062 27.06793457 5.77539062 32.50793457 C7.12176102 32.51380081 8.46813141 32.51966705 9.8553009 32.52571106 C22.5250865 32.58284985 35.19469899 32.65556493 47.86430836 32.74364948 C54.37835778 32.78843409 60.89234348 32.82767236 67.40649414 32.85437012 C73.68949508 32.88032234 79.97225185 32.92066729 86.25510216 32.97112083 C88.65571755 32.98784434 91.05637522 32.99932432 93.45704079 33.00554848 C96.81187343 33.01512992 100.16607362 33.04311804 103.52075195 33.07556152 C104.51984589 33.07412643 105.51893982 33.07269135 106.54830933 33.07121277 C107.46116196 33.08375092 108.37401459 33.09628906 109.31452942 33.10920715 C110.50502506 33.1161206 110.50502506 33.1161206 111.71957111 33.12317371 C114.32183195 33.61020485 115.20935484 34.39919251 116.77539062 36.50793457 C117.08478044 39.0266596 117.21293294 41.30410238 117.20776367 43.82507324 C117.22305115 44.93763741 117.22305115 44.93763741 117.23864746 46.07267761 C117.26883725 48.52382909 117.27805226 50.97459016 117.28710938 53.42590332 C117.30395168 55.12556768 117.32210131 56.82521954 117.34150696 58.52485657 C117.38906205 62.99807838 117.41883564 67.47124957 117.44494629 71.94464111 C117.47472412 76.50946046 117.52126393 81.07410525 117.56640625 85.63879395 C117.65250215 94.59510306 117.71827023 103.55139373 117.77539062 112.50793457 C123.05539062 112.50793457 128.33539063 112.50793457 133.77539062 112.50793457 C133.77539062 80.82793457 133.77539062 49.14793457 133.77539062 16.50793457 C91.53539062 16.50793457 49.29539062 16.50793457 5.77539062 16.50793457 Z M-26.22460938 48.50793457 C-26.22460938 72.59793457 -26.22460938 96.68793457 -26.22460938 121.50793457 C-23.12950934 117.63905953 -20.54021955 113.89539051 -18.06445312 109.65246582 C-17.48431458 108.66938446 -17.48431458 108.66938446 -16.89245605 107.66644287 C-16.06965626 106.27147379 -15.24851784 104.87552364 -14.42892456 103.47866821 C-12.30695421 99.8635333 -10.17077753 96.25679798 -8.03710938 92.64855957 C-7.41079872 91.58817223 -7.41079872 91.58817223 -6.77183533 90.50636292 C-3.42780266 84.84536469 -0.06830586 79.19431527 3.33789062 73.57043457 C3.77174072 72.84509521 4.20559082 72.11975586 4.65258789 71.37243652 C7.54142943 66.62491517 7.54142943 66.62491517 9.77539062 65.50793457 C17.07966806 64.91887994 17.07966806 64.91887994 19.55883789 67.01794434 C22.53926442 70.36604106 24.8834014 74.01298675 27.31054688 77.77355957 C28.37728652 79.40137194 29.44435346 81.02896987 30.51171875 82.65637207 C32.1836362 85.21716639 33.85219203 87.78001232 35.51489258 90.34680176 C37.12521574 92.82844633 38.74815666 95.30143727 40.37304688 97.77355957 C40.8699855 98.54846741 41.36692413 99.32337524 41.87892151 100.12176514 C42.3462822 100.82960144 42.81364288 101.53743774 43.29516602 102.26672363 C43.70279678 102.89419495 44.11042755 103.52166626 44.53041077 104.16815186 C44.94125412 104.61028015 45.35209747 105.05240845 45.77539062 105.50793457 C48.74747276 105.82203099 48.74747276 105.82203099 50.46118164 104.14685059 C51.36114868 103.21377075 51.36114868 103.21377075 52.27929688 102.26184082 C52.93736328 101.58959473 53.59542969 100.91734863 54.2734375 100.22473145 C54.95470703 99.51381348 55.63597656 98.80289551 56.33789062 98.07043457 C57.69121599 96.67382317 59.04658837 95.27919155 60.40429688 93.88684082 C61.00314697 93.26365967 61.60199707 92.64047852 62.21899414 91.99841309 C65.09595898 89.24329617 67.71896521 89.2703024 71.60742188 88.98449707 C77.87549403 90.49786945 81.70600779 98.57410268 85.02539062 103.57043457 C92.5547161 114.79097766 92.5547161 114.79097766 100.77539062 125.50793457 C101.10539062 125.50793457 101.43539062 125.50793457 101.77539062 125.50793457 C101.77539062 100.09793457 101.77539062 74.68793457 101.77539062 48.50793457 C59.53539062 48.50793457 17.29539062 48.50793457 -26.22460938 48.50793457 Z M13.77539062 88.50793457 C12.4755064 90.5525502 11.23462763 92.60788137 10.01367188 94.69934082 C9.63078003 95.34813202 9.24788818 95.99692322 8.85339355 96.66537476 C7.59505526 98.7985436 6.34155339 100.9345152 5.08789062 103.07043457 C3.36085034 106.00137928 1.63095966 108.93063478 -0.09960938 111.85949707 C-0.53274948 112.59310959 -0.96588959 113.32672211 -1.41215515 114.08256531 C-5.93140175 121.72544391 -10.55289572 129.3038237 -15.2097168 136.86364746 C-15.74443604 137.73497314 -16.27915527 138.60629883 -16.83007812 139.50402832 C-17.29567139 140.25869385 -17.76126465 141.01335937 -18.2409668 141.79089355 C-19.30745637 143.32274623 -19.30745637 143.32274623 -19.22460938 144.50793457 C17.73539062 144.50793457 54.69539063 144.50793457 92.77539062 144.50793457 C91.29502446 141.54720224 89.86878652 139.04866607 88.01757812 136.34777832 C87.47770264 135.55863037 86.93782715 134.76948242 86.3815918 133.9564209 C85.81029541 133.12779541 85.23899902 132.29916992 84.65039062 131.44543457 C84.06942627 130.59940674 83.48846191 129.75337891 82.88989258 128.88171387 C78.61878616 122.68164419 74.26905161 116.54926127 69.77539062 110.50793457 C66.75042482 111.85855744 64.69482123 113.35822694 62.39257812 115.73059082 C61.78285156 116.35127441 61.173125 116.97195801 60.54492188 117.6114502 C59.91972656 118.25791504 59.29453125 118.90437988 58.65039062 119.57043457 C57.40002988 120.85517387 56.14752546 122.13783138 54.89257812 123.41809082 C54.3419873 123.98664795 53.79139648 124.55520508 53.22412109 125.14099121 C50.36213019 127.84141034 47.67343174 127.72268135 43.84570312 127.93371582 C39.66286379 127.0734715 37.49134129 123.20688008 35.22583008 119.84094238 C34.27537801 118.38405804 33.32991404 116.923911 32.38867188 115.46105957 C31.88619431 114.68985779 31.38371674 113.91865601 30.86601257 113.12408447 C29.26867695 110.67167296 27.67773532 108.21520776 26.08789062 105.75793457 C24.48684572 103.28670964 22.88439656 100.81644938 21.27763367 98.34893799 C20.2792227 96.81542286 19.28419671 95.27969783 18.2928009 93.74163818 C17.14652162 91.97975085 15.9647699 90.24101856 14.77539062 88.50793457 C14.44539063 88.50793457 14.11539063 88.50793457 13.77539062 88.50793457 Z " fill="white" transform="translate(290.224609375,263.4920654296875)"/>
<path d="M0 0 C5.82485779 3.51996782 10.54466582 8.98962934 12.5625 15.5 C13.36764105 23.33608208 13.68710392 31.11922577 8.5625 37.5 C3.75801361 42.54521222 -0.59927055 46.10562995 -7.70703125 46.8359375 C-16.22326573 46.92983204 -22.11345494 46.6177288 -28.40234375 40.62890625 C-34.7841668 33.72505269 -35.91792252 28.29832071 -35.7421875 18.9453125 C-35.04689797 11.08319245 -31.38995981 6.95041296 -25.53515625 1.9453125 C-18.47077988 -2.92213491 -7.84396301 -3.47595223 0 0 Z M-16.8125 17.125 C-18.92456506 20.21186432 -19.04945145 21.8282913 -18.4375 25.5 C-16.9375 28 -16.9375 28 -14.4375 29.5 C-10.7657913 30.11195145 -9.14936432 29.98706506 -6.0625 27.875 C-3.95043494 24.78813568 -3.82554855 23.1717087 -4.4375 19.5 C-5.9375 17 -5.9375 17 -8.4375 15.5 C-12.1092087 14.88804855 -13.72563568 15.01293494 -16.8125 17.125 Z " fill="white" transform="translate(115.4375,425.5)"/>
</svg>
